<?xml version="1.0" encoding="utf-8"?>
<!-- Generator: Adobe Illustrator 16.0.0, SVG Export Plug-In . SVG Version: 6.00 Build 0)  -->
<!DOCTYPE svg PUBLIC "-//W3C//DTD SVG 1.1//EN" "http://www.w3.org/Graphics/SVG/1.1/DTD/svg11.dtd">
<svg version="1.1" id="Layer_1" xmlns="http://www.w3.org/2000/svg" xmlns:xlink="http://www.w3.org/1999/xlink" x="0px" y="0px"
	 width="100px" height="100px" viewBox="0 0 100 100" enable-background="new 0 0 100 100" xml:space="preserve">
<g>
	<g>
		<path d="M71.63,10c0,0-36.78,0-42.668,0c-5.888,0-7.619,4.428-7.619,7.217c0,2.791,0,67.793,0,67.793
			c0,3.142,1.688,4.307,2.636,4.69c0.949,0.385,3.567,0.709,5.135-1.102c0,0,20.144-23.374,20.49-23.72
			c0.523-0.523,0.523-0.523,1.047-0.523c1.046,0,8.811,0,13.033,0c5.477,0,6.356-3.905,6.928-6.206
			c0.477-1.927,5.819-29.279,7.604-37.957C79.578,13.57,77.896,10,71.63,10z M70.612,58.149c0.477-1.927,5.819-29.279,7.604-37.957
			 M69.109,21.548l-1.791,9.334c-0.214,1.009-1.484,2.071-2.662,2.071s-16.622,0-16.622,0c-1.87,0-3.208,1.274-3.208,3.143v2.035
			c0,1.87,1.347,3.195,3.218,3.195c0,0,12.783,0,14.102,0c1.321,0,2.617,1.448,2.331,2.858c-0.286,1.412-1.627,8.408-1.788,9.179
			c-0.161,0.773-1.047,2.094-2.617,2.094c-1.323,0-11.511,0-11.511,0c-2.096,0-2.73,0.274-4.133,2.017
			c-1.403,1.745-14.016,16.892-14.016,16.892c-0.128,0.146-0.252,0.104-0.252-0.056V21.41c0-1.193,1.038-2.593,2.593-2.593
			c0,0,32.905,0,34.241,0C68.254,18.816,69.431,20,69.109,21.548z"/>
	</g>
</g>
</svg>
