<?xml version="1.0" encoding="utf-8"?>
<!-- Generator: Adobe Illustrator 16.0.0, SVG Export Plug-In . SVG Version: 6.00 Build 0)  -->
<!DOCTYPE svg PUBLIC "-//W3C//DTD SVG 1.1//EN" "http://www.w3.org/Graphics/SVG/1.1/DTD/svg11.dtd">
<svg version="1.1" id="Layer_1" xmlns="http://www.w3.org/2000/svg" xmlns:xlink="http://www.w3.org/1999/xlink" x="0px" y="0px"
	 width="100px" height="100px" viewBox="0 0 100 100" enable-background="new 0 0 100 100" xml:space="preserve">
<path fill="#231F20" d="M80.583,10.056H19.416c-5.147,0-9.36,4.212-9.36,9.36v61.167c0,5.146,4.213,9.359,9.36,9.359h61.167
	c5.148,0,9.361-4.213,9.361-9.359V19.417C89.944,14.269,85.731,10.056,80.583,10.056z M49.896,34.725
	c8.438,0,15.276,6.839,15.276,15.275c0,8.436-6.839,15.275-15.276,15.275c-8.436,0-15.274-6.84-15.274-15.275
	C34.621,41.563,41.46,34.725,49.896,34.725z M80.786,77.664c0,1.717-1.404,3.123-3.121,3.123h-55.33
	c-1.717,0-3.121-1.406-3.121-3.123V43.76h6.733c-0.502,1.962-0.77,4.018-0.77,6.136c0,13.651,11.066,24.717,24.718,24.717
	c13.652,0,24.719-11.066,24.719-24.717c0-2.119-0.269-4.174-0.771-6.136h6.942V77.664z M80.786,31.487
	c0,1.717-1.404,3.12-3.121,3.12h-9.153c-1.715,0-3.119-1.403-3.119-3.12v-9.152c0-1.717,1.404-3.12,3.119-3.12h9.153
	c1.717,0,3.121,1.403,3.121,3.12V31.487z"/>
</svg>
