<?xml version="1.0" encoding="utf-8"?>
<!-- Generator: Adobe Illustrator 16.0.0, SVG Export Plug-In . SVG Version: 6.00 Build 0)  -->
<!DOCTYPE svg PUBLIC "-//W3C//DTD SVG 1.1//EN" "http://www.w3.org/Graphics/SVG/1.1/DTD/svg11.dtd">
<svg version="1.1" id="Layer_1" xmlns="http://www.w3.org/2000/svg" xmlns:xlink="http://www.w3.org/1999/xlink" x="0px" y="0px"
	 width="100px" height="100px" viewBox="0 0 100 100" enable-background="new 0 0 100 100" xml:space="preserve">
<g>
	<path d="M11.25,36.565h16.622V90H11.25V36.565z M19.567,10c5.312,0,9.626,4.316,9.626,9.626c0,5.317-4.313,9.633-9.626,9.633
		c-5.337,0-9.635-4.315-9.635-9.633C9.932,14.316,14.23,10,19.567,10"/>
	<path d="M38.293,36.565h15.919v7.301h0.228c2.215-4.203,7.637-8.632,15.717-8.632c16.804,0,19.911,11.064,19.911,25.457V90H73.475
		V64.018c0-6.197-0.122-14.171-8.633-14.171c-8.643,0-9.96,6.75-9.96,13.721V90H38.293V36.565z"/>
</g>
</svg>
