<?xml version="1.0" encoding="utf-8"?>
<!-- Generator: Adobe Illustrator 16.0.0, SVG Export Plug-In . SVG Version: 6.00 Build 0)  -->
<!DOCTYPE svg PUBLIC "-//W3C//DTD SVG 1.1//EN" "http://www.w3.org/Graphics/SVG/1.1/DTD/svg11.dtd">
<svg version="1.1" id="Layer_1" xmlns="http://www.w3.org/2000/svg" xmlns:xlink="http://www.w3.org/1999/xlink" x="0px" y="0px"
	 width="100px" height="100px" viewBox="0 0 100 100" enable-background="new 0 0 100 100" xml:space="preserve">
<path d="M51.071,10c-20.938,0-32.053,14.051-32.053,29.363c0,7.11,3.785,15.969,9.845,18.789c0.922,0.429,1.41,0.241,1.619-0.646
	c0.162-0.677,0.984-3.966,1.349-5.503c0.121-0.49,0.061-0.911-0.339-1.396c-1.995-2.421-3.602-6.899-3.602-11.066
	c0-10.697,8.101-21.048,21.901-21.048c11.924,0,20.262,8.117,20.262,19.732c0,13.125-6.617,22.214-15.245,22.214
	c-4.764,0-8.329-3.931-7.187-8.771c1.373-5.762,4.02-11.992,4.02-16.145c0-3.732-2-6.837-6.14-6.837
	c-4.866,0-8.779,5.037-8.779,11.786c0,4.296,1.454,7.198,1.454,7.198s-4.806,20.333-5.684,24.118
	c-1.499,6.422,0.195,16.829,0.345,17.737c0.076,0.488,0.618,0.652,0.924,0.242c0.472-0.631,6.268-9.321,7.907-15.606
	c0.582-2.268,3.014-11.533,3.014-11.533c1.591,3.018,6.203,5.569,11.12,5.569c14.629,0,25.178-13.461,25.178-30.174
	C80.981,21.993,67.902,10,51.071,10z"/>
</svg>
