<?xml version="1.0" encoding="utf-8"?>
<!-- Generator: Adobe Illustrator 16.0.0, SVG Export Plug-In . SVG Version: 6.00 Build 0)  -->
<!DOCTYPE svg PUBLIC "-//W3C//DTD SVG 1.1//EN" "http://www.w3.org/Graphics/SVG/1.1/DTD/svg11.dtd">
<svg version="1.1" id="Layer_1" xmlns="http://www.w3.org/2000/svg" xmlns:xlink="http://www.w3.org/1999/xlink" x="0px" y="0px"
	 width="100px" height="100px" viewBox="0 0 100 100" enable-background="new 0 0 100 100" xml:space="preserve">
<g>
	<g>
		<path d="M80.505,65.397c12.661-12.653,12.661-33.248,0-45.905c-12.657-12.657-33.249-12.657-45.91,0
			c-10.729,10.742-12.354,26.707-4.878,39.177c0,0,0.539,0.904-0.187,1.625C25.389,64.436,12.969,76.86,12.969,76.86
			c-3.301,3.292-4.084,7.903-1.156,10.827l0.497,0.504c2.928,2.924,7.534,2.137,10.83-1.155c0,0,12.394-12.398,16.527-16.527
			c0.76-0.761,1.66-0.226,1.66-0.226C53.803,77.764,69.768,76.139,80.505,65.397z M40.594,59.406
			c-9.354-9.349-9.354-24.565,0-33.919c9.35-9.353,24.57-9.353,33.916,0c9.357,9.354,9.357,24.57,0,33.919
			C65.164,68.76,49.944,68.76,40.594,59.406z"/>
		<g>
			<path d="M42.666,40.518c-0.435,0-0.881-0.085-1.304-0.264c-1.706-0.721-2.505-2.684-1.779-4.39
				c4.525-10.71,16.931-15.736,27.641-11.207c1.706,0.721,2.497,2.691,1.78,4.393c-0.722,1.703-2.688,2.501-4.394,1.78
				c-7.302-3.095-15.764,0.337-18.859,7.643C45.208,39.75,43.972,40.518,42.666,40.518z"/>
		</g>
	</g>
</g>
</svg>
