<?xml version="1.0" encoding="utf-8"?>
<!-- Generator: Adobe Illustrator 16.0.0, SVG Export Plug-In . SVG Version: 6.00 Build 0)  -->
<!DOCTYPE svg PUBLIC "-//W3C//DTD SVG 1.1//EN" "http://www.w3.org/Graphics/SVG/1.1/DTD/svg11.dtd">
<svg version="1.1" id="Layer_1" xmlns="http://www.w3.org/2000/svg" xmlns:xlink="http://www.w3.org/1999/xlink" x="0px" y="0px"
	 width="100px" height="100px" viewBox="0 0 100 100" enable-background="new 0 0 100 100" xml:space="preserve">
<g>
	<g id="share-alt_1_">
		<path d="M10,49.776c0,7.599,5.807,13.41,13.407,13.41c3.572,0,6.701-1.345,8.939-3.578l31.729,18.77
			c-0.445,1.338-0.445,2.236-0.445,3.125c0,7.151,5.807,12.963,12.958,12.963c7.15,0,12.963-5.812,12.963-12.963
			c0-7.15-5.812-12.96-12.963-12.96c-3.573,0-6.702,1.344-8.935,3.575L35.925,53.352c0.445-0.895,0.445-2.236,0.445-3.128
			c0-0.897,0-2.234-0.445-3.129l31.729-18.321c2.232,2.233,5.361,3.57,8.935,3.57c7.601,0,13.412-5.81,13.412-13.407
			c0-7.591-5.812-13.402-13.412-13.402c-7.597,0-13.407,5.812-13.407,13.402c0,0.896,0,2.238,0.449,3.13L31.897,40.389
			c-2.234-2.23-5.367-3.575-8.93-3.575C15.361,36.813,10,42.178,10,49.776z"/>
	</g>
</g>
</svg>
