<?xml version="1.0" encoding="utf-8"?>
<!-- Generator: Adobe Illustrator 16.0.0, SVG Export Plug-In . SVG Version: 6.00 Build 0)  -->
<!DOCTYPE svg PUBLIC "-//W3C//DTD SVG 1.1//EN" "http://www.w3.org/Graphics/SVG/1.1/DTD/svg11.dtd">
<svg version="1.1" id="Layer_1" xmlns="http://www.w3.org/2000/svg" xmlns:xlink="http://www.w3.org/1999/xlink" x="0px" y="0px"
	 width="100px" height="100px" viewBox="0 0 100 100" enable-background="new 0 0 100 100" xml:space="preserve">
<path d="M90,25.189c-2.942,1.305-6.105,2.188-9.427,2.584c3.389-2.031,5.991-5.248,7.217-9.08
	c-3.171,1.881-6.685,3.247-10.424,3.983c-2.992-3.189-7.258-5.183-11.978-5.183c-9.065,0-16.415,7.349-16.415,16.412
	c0,1.288,0.146,2.54,0.425,3.741c-13.64-0.683-25.734-7.218-33.83-17.148c-1.411,2.424-2.222,5.243-2.222,8.251
	c0,5.694,2.897,10.718,7.301,13.662c-2.69-0.085-5.221-0.824-7.434-2.054c0,0.069-0.001,0.139-0.001,0.207
	c0,7.952,5.656,14.586,13.166,16.094c-1.378,0.374-2.827,0.574-4.324,0.574c-1.058,0-2.086-0.104-3.088-0.294
	c2.088,6.521,8.148,11.267,15.332,11.398c-5.617,4.403-12.694,7.025-20.384,7.025c-1.325,0-2.632-0.078-3.915-0.229
	c7.264,4.657,15.891,7.374,25.158,7.374c30.19,0,46.698-25.009,46.698-46.698c0-0.712-0.015-1.419-0.047-2.123
	C85.017,31.372,87.799,28.481,90,25.189z"/>
</svg>
