<?xml version="1.0" encoding="utf-8"?>
<!-- Generator: Adobe Illustrator 16.0.0, SVG Export Plug-In . SVG Version: 6.00 Build 0)  -->
<!DOCTYPE svg PUBLIC "-//W3C//DTD SVG 1.1//EN" "http://www.w3.org/Graphics/SVG/1.1/DTD/svg11.dtd">
<svg version="1.1" id="Layer_1" xmlns="http://www.w3.org/2000/svg" xmlns:xlink="http://www.w3.org/1999/xlink" x="0px" y="0px"
	 width="100px" height="100px" viewBox="0 0 100 100" enable-background="new 0 0 100 100" xml:space="preserve">
<path fill-rule="evenodd" clip-rule="evenodd" d="M78.217,21.626C70.73,14.133,60.773,10.004,50.167,10
	C28.309,10,10.52,27.782,10.512,49.64c-0.003,6.987,1.823,13.807,5.293,19.818L10.179,90l21.021-5.512
	c5.792,3.157,12.313,4.822,18.95,4.824h0.016h0c21.854,0,39.646-17.784,39.653-39.641C89.824,39.079,85.705,29.119,78.217,21.626
	 M50.167,82.617h-0.013c-5.914-0.002-11.715-1.59-16.775-4.592l-1.204-0.715L19.7,80.582l3.33-12.158l-0.784-1.247
	c-3.299-5.246-5.042-11.31-5.04-17.535C17.214,31.475,32,16.695,50.18,16.695c8.803,0.003,17.078,3.435,23.301,9.663
	c6.225,6.228,9.648,14.506,9.645,23.31C83.119,67.837,68.332,82.617,50.167,82.617 M68.246,57.941
	c-0.992-0.496-5.863-2.893-6.771-3.223c-0.908-0.331-1.568-0.496-2.229,0.495s-2.561,3.223-3.139,3.884
	c-0.576,0.661-1.154,0.744-2.146,0.248c-0.99-0.496-4.183-1.542-7.967-4.916c-2.945-2.627-4.934-5.871-5.512-6.862
	c-0.578-0.992-0.062-1.528,0.435-2.021c0.446-0.444,0.991-1.157,1.486-1.735c0.495-0.578,0.661-0.992,0.991-1.652
	c0.33-0.661,0.165-1.24-0.083-1.735c-0.248-0.496-2.229-5.372-3.055-7.354c-0.804-1.932-1.621-1.67-2.229-1.701
	c-0.578-0.028-1.239-0.035-1.899-0.035c-0.661,0-1.734,0.248-2.643,1.239c-0.908,0.992-3.467,3.388-3.467,8.264
	c0,4.875,3.55,9.585,4.045,10.246c0.496,0.662,6.987,10.666,16.926,14.957c2.364,1.021,4.21,1.63,5.649,2.087
	c2.373,0.753,4.533,0.646,6.24,0.392c1.904-0.284,5.861-2.396,6.688-4.71s0.826-4.297,0.578-4.71S69.236,58.437,68.246,57.941"/>
</svg>
