<?xml version="1.0" encoding="utf-8"?>
<!-- Generator: Adobe Illustrator 16.0.0, SVG Export Plug-In . SVG Version: 6.00 Build 0)  -->
<!DOCTYPE svg PUBLIC "-//W3C//DTD SVG 1.1//EN" "http://www.w3.org/Graphics/SVG/1.1/DTD/svg11.dtd">
<svg version="1.1" id="Layer_1" xmlns="http://www.w3.org/2000/svg" xmlns:xlink="http://www.w3.org/1999/xlink" x="0px" y="0px"
	 width="100px" height="100px" viewBox="0 0 100 100" enable-background="new 0 0 100 100" xml:space="preserve">
<g id="YouTube_icon_2_">
	<g id="Lozenge">
		<g>
			<path d="M89.201,34.005c0,0-0.782-5.513-3.18-7.94c-3.043-3.186-6.453-3.202-8.017-3.389c-11.194-0.81-27.988-0.81-27.988-0.81
				h-0.034c0,0-16.792,0-27.988,0.81c-1.563,0.187-4.972,0.203-8.016,3.389c-2.398,2.428-3.179,7.94-3.179,7.94S10,40.479,10,46.953
				v6.069c0,6.472,0.8,12.946,0.8,12.946s0.781,5.514,3.179,7.94c3.043,3.188,7.041,3.086,8.821,3.42
				c6.4,0.613,27.2,0.805,27.2,0.805s16.811-0.026,28.005-0.835c1.563-0.186,4.974-0.201,8.017-3.39
				c2.397-2.427,3.18-7.94,3.18-7.94S90,59.494,90,53.022v-6.069C90,40.479,89.201,34.005,89.201,34.005z M41.741,60.377
				l-0.003-22.478l21.616,11.277L41.741,60.377z"/>
		</g>
	</g>
</g>
</svg>
