<?xml version="1.0" encoding="utf-8"?>
<!-- Generator: Adobe Illustrator 16.0.0, SVG Export Plug-In . SVG Version: 6.00 Build 0)  -->
<!DOCTYPE svg PUBLIC "-//W3C//DTD SVG 1.1//EN" "http://www.w3.org/Graphics/SVG/1.1/DTD/svg11.dtd">
<svg version="1.1" id="Layer_1" xmlns="http://www.w3.org/2000/svg" xmlns:xlink="http://www.w3.org/1999/xlink" x="0px" y="0px"
	 width="100.366px" height="23.221px" viewBox="0 3.224 100.366 23.221" enable-background="new 0 3.224 100.366 23.221"
	 xml:space="preserve">
<g>
	<g>
		<path fill="#FFFFFF" d="M2.213,8.786v5.63H1.082v-5.63H2.213z"/>
		<path fill="#FFFFFF" d="M9.336,8.786v1.129H7.26v4.5H6.129v-4.5H4.052V8.786H9.336z"/>
		<path fill="#FFFFFF" d="M11.726,9.469c-0.338,0-0.739-0.238-0.739-0.751c0-0.456,0.391-0.729,0.73-0.729
			c0.444,0,0.9,0.437,0.9,1.219c0,0.958-1.14,1.882-1.293,1.935l-0.13-0.151c0.163-0.1,1.01-0.903,1.01-1.349
			c0-0.044,0-0.173-0.152-0.173L11.726,9.469L11.726,9.469z"/>
		<path fill="#FFFFFF" d="M13.95,12.603c0.978,0.629,1.913,0.857,2.901,0.857c0.565,0,1.522-0.141,1.522-0.771
			c0-0.458-0.5-0.576-0.848-0.588l-1.686-0.055c-1.379-0.032-2.054-0.836-2.054-1.705c0-0.837,0.621-1.728,2.641-1.728
			c1.478,0,2.382,0.564,2.718,0.738l-0.51,1.001c-0.446-0.228-1.261-0.609-2.381-0.609c-0.6,0-1.338,0.131-1.338,0.631
			c0,0.435,0.619,0.544,0.999,0.544l1.47,0.053c1.293,0.033,2.119,0.589,2.119,1.773c0,1.011-0.795,1.849-2.653,1.849
			c-1.521,0-2.641-0.382-3.425-0.979L13.95,12.603z"/>
	</g>
	<g>
		<path fill="#FFFFFF" d="M77.939,8.786v1.129h-2.077v4.5h-1.131v-4.5h-2.077V8.786H77.939z"/>
		<path fill="#FFFFFF" d="M80.919,8.786v5.63h-1.133v-5.63H80.919z"/>
		<path fill="#FFFFFF" d="M84.729,10.829h-0.019v3.587h-1.134v-5.63h1.134l1.977,2.826l1.979-2.826h1.13v5.63h-1.13v-3.587h-0.02
			l-1.959,2.826L84.729,10.829z"/>
		<path fill="#FFFFFF" d="M97.439,8.786v1.129h-3.871v1.022h2.045v1.131h-2.045v1.216h4.002v1.131h-5.131v-5.63H97.439z"/>
	</g>
	<g>
		<g>
			<path fill="#FFFFFF" d="M71.02,9.346c-0.368,0.066-0.739-0.165-0.812-0.558c-0.068-0.39,0.203-0.739,0.567-0.8
				c0.368-0.063,0.737,0.17,0.808,0.56C71.653,8.948,71.378,9.283,71.02,9.346z M70.804,8.146c-0.271,0.049-0.468,0.297-0.415,0.609
				c0.057,0.312,0.328,0.482,0.601,0.434l0.004,0.001c0.26-0.045,0.462-0.298,0.406-0.611C71.345,8.265,71.072,8.099,70.804,8.146z
				 M70.852,9.017l-0.145,0.024l-0.115-0.663l0.252-0.044c0.171-0.029,0.28,0,0.31,0.153c0.019,0.125-0.044,0.179-0.132,0.202
				l0.219,0.26l-0.165,0.031l-0.202-0.255L70.804,8.74L70.852,9.017z M70.915,8.602c0.062-0.011,0.094-0.03,0.085-0.105
				c-0.016-0.067-0.085-0.06-0.143-0.052l-0.104,0.016l0.028,0.162L70.915,8.602z"/>
		</g>
		<path fill="#FFFFFF" d="M69.086,9.274l0.043-0.009l0.542,0.41l-0.033,0.174c-11,3.423-27.368,11.116-31.192,15.545l-0.034,0.039
			l-0.05-0.004c-4.125-0.557-9.812,0.432-11.326,0.995l-0.065,0.021l-0.36-0.441l0.039-0.151
			C40.132,19.737,59.041,12.077,69.086,9.274 M48.594,8.379c0.764-0.036,1.279-0.688,1.258-1.251
			c-0.008-0.271-0.116-0.505-0.307-0.683c-0.203-0.18-0.474-0.274-0.773-0.262c-0.602,0.029-1.261,0.574-1.243,1.273
			c0.005,0.026,0.003,0.058,0.008,0.085c0.026,0.228,0.116,0.42,0.278,0.562C48.052,8.323,48.371,8.386,48.594,8.379 M71.064,3.67
			l-0.021,0.051c-0.009,0.053-0.328,1.208-1.396,1.756c-0.954,0.485-1.478,0.012-1.659-0.219c-0.153,0.188-0.522,0.674-1.064,1.509
			c-0.768,1.201-1.217,2.684-1.217,2.701l-0.015,0.043l-1.735,0.592l-0.122-0.274c0,0,0.16-0.575,0.292-1.045
			c-0.842,1.206-2.067,2.468-3.534,2.533c-0.9,0.044-1.539-0.359-1.84-1.089c-0.829,1.798-1.973,2.828-3.246,2.887
			c-0.627,0.032-1.064-0.26-1.261-0.791c-1.02,1.826-2.119,2.276-2.888,2.31c-0.382,0.019-0.724-0.083-0.968-0.289
			c-0.171-0.147-0.274-0.358-0.342-0.598c-0.863,1.506-1.68,2.455-3.009,2.516c-0.564,0.034-0.976-0.232-1.186-0.696
			c-0.704,1.11-1.686,2.328-3.169,2.402c-0.272,0.015-0.791-0.018-1.151-0.355c-0.256-0.226-0.383-0.553-0.398-0.968
			c-0.023-0.828,0.412-2.294,0.831-3.691c0.404-1.333,0.786-2.594,0.762-3.255c-0.008-0.234-0.066-0.337-0.108-0.383
			c0,0-0.072-0.043-0.133-0.043c-0.218,0.006-0.557,0.177-0.965,0.463c0,0-1.139,0.858-1.198,0.901
			c-0.354,2.974-1.031,5.725-2.195,8.923l-0.015,0.037l-1.374,0.574l-0.889,0.383l-0.237-0.228l0.024-0.066
			c0.908-2.271,2.407-6.522,2.306-9.454c-0.002-0.213-0.057-0.369-0.138-0.449c-0.055-0.049-0.123-0.071-0.208-0.065
			c-0.187,0.009-0.703,0.302-1.173,0.674c0,0-0.849,0.67-0.919,0.723c0.001,0.095,0.003,0.3,0.003,0.302
			c0.09,4.105-2.161,8.688-3.205,10.13l-0.018,0.026l-1.567,0.649l-1.23,0.52l-0.242-0.222l0.068-0.088
			c0.892-1.259,3.791-5.623,3.803-9.703c-0.004-1.115-0.355-2.032-1.01-2.675c-0.65-0.616-1.573-0.91-2.66-0.854
			c-2.562,0.147-5.31,1.819-5.312,4.063c0,0.546,0.221,1.089,0.617,1.466c0.446,0.423,1.062,0.623,1.781,0.577
			c0.905-0.048,1.328-0.433,1.518-0.761c0.19-0.31,0.217-0.641,0.148-0.802l-0.018-0.037l0.137-0.316c0,0,0.79-0.091,1.587-0.33
			c0.73-0.22,1.552-0.637,1.552-0.637l0.248,0.176l0.056,0.049l-0.016,0.069c0,0-0.013,0.111-0.015,0.113
			c-0.084,1.708-1.698,3.5-4.603,3.67c-1.285,0.06-2.44-0.294-3.165-0.982c-0.586-0.554-0.896-1.333-0.891-2.227
			c0.002-3.149,3.956-5.021,6.63-5.293c3.083-0.318,4.856,0.84,5.524,2.066c0.165-0.153,3.874-3.669,4.04-3.827
			c0.003-0.004,0.007-0.008,0.007-0.008l0.071-0.059c0,0,0.068,0.074,0.233,0.216c0.316,0.271,0.775,0.808,0.827,1.603
			c0.015,0.229,0.036,0.644,0.034,0.757c1.097-0.94,4.206-3.695,4.206-3.695s0.09,0.113,0.235,0.263
			c0.504,0.527,0.914,1.279,0.585,2.784c-0.214,0.941-0.816,2.466-1.441,4.697c-0.426,1.451-0.636,2.507-0.624,2.783
			c-0.01,0.116,0.023,0.198,0.078,0.249c0.039,0.039,0.113,0.054,0.217,0.054c0.883-0.042,1.841-1.689,2.339-3.279l0.958-3.242
			c0,0,1.299-0.515,1.847-0.864l0.147-0.09l0.368,0.435L49.24,9.543c-0.074,0.074-0.17,0.26-0.242,0.491
			c-1.135,3.664-1.207,3.901-1.214,3.906c-0.062,0.214-0.095,0.397-0.093,0.553c0.001,0.032,0.001,0.055,0.005,0.077
			c0.018,0.117,0.049,0.208,0.112,0.263l0.173,0.056c0.678-0.029,1.487-1.33,2.269-3.647l1.638-5.504l0.01-0.044l0.048-0.017
			c0,0,0.087-0.035,0.062-0.027c0.428-0.185,1.146-0.533,1.766-0.912l0.137-0.089l0.379,0.438L54.17,5.2
			c-0.033,0.037-0.107,0.139-0.192,0.441l-1.776,6.008c-0.213,0.748-0.233,1.055-0.233,1.227c-0.004,0.021,0.002,0.041,0.009,0.056
			c0.007,0.116,0.05,0.211,0.106,0.269l0.138,0.042c0.765-0.033,1.489-1.202,2.399-3.914l1.495-4.952c0,0,1.217-0.535,1.847-0.934
			l0.071-0.047l0.073-0.048l0.37,0.44l-0.062,0.066c0,0-0.054,0.056-0.049,0.054c-0.037,0.038-0.107,0.153-0.196,0.436
			c0,0-1.794,5.798-1.802,5.802c-0.165,0.522-0.25,1.054-0.236,1.278c0.003,0.198,0.053,0.287,0.088,0.319l0.107,0.03
			c0.516-0.021,1.393-0.903,2.157-2.784c0.797-2.575,1.944-3.86,3.497-3.936c0.371-0.018,0.692,0.092,0.932,0.311
			c0.215,0.196,0.362,0.482,0.396,0.785c0.004,0.038,0.008,0.079,0.008,0.111c0.04,1.266-1.104,2.49-2.916,3.156
			c0,0.019,0.003,0.048,0.005,0.069c0.065,0.508,0.299,0.754,0.712,0.729c1.637-0.078,3.19-2.84,3.789-4.576l0.412-1.149
			l0.061-0.167l1.572-0.647l0.262,0.224c0,0-0.395,1.119-0.634,1.812c0.534-0.743,1.739-2.487,1.739-2.487L68.82,3.31l0.075,0.121
			c-0.059,0.196-0.163,0.737,0.013,0.951c0.062,0.074,0.151,0.098,0.278,0.092c0.695-0.064,1.377-1.088,1.383-1.098l0.146-0.017
			L71.064,3.67z M61.955,6.275c-0.002-0.041-0.009-0.074-0.008-0.113c-0.022-0.131-0.053-0.23-0.102-0.269l-0.097-0.036
			c-0.556,0.024-1.282,1.555-1.369,2.78C61.543,8.026,61.971,6.879,61.955,6.275"/>
	</g>
	<circle fill="#FFFFFF" cx="99.793" cy="13.852" r="0.573"/>
</g>
</svg>
