<?xml version="1.0" encoding="utf-8"?>
<!-- Generator: Adobe Illustrator 16.0.0, SVG Export Plug-In . SVG Version: 6.00 Build 0)  -->
<!DOCTYPE svg PUBLIC "-//W3C//DTD SVG 1.0//EN" "http://www.w3.org/TR/2001/REC-SVG-20010904/DTD/svg10.dtd">
<svg version="1.0" id="Layer_1" xmlns="http://www.w3.org/2000/svg" xmlns:xlink="http://www.w3.org/1999/xlink" x="0px" y="0px"
	 width="117.062px" height="33.321px" viewBox="0 0 117.062 33.321" enable-background="new 0 0 117.062 33.321"
	 xml:space="preserve">
<g>
	<g>
		<path fill="#FFFFFF" d="M2.39,9.66v6.516H1.082V9.66H2.39z"/>
		<path fill="#FFFFFF" d="M10.634,9.66v1.308H8.231v5.208H6.923v-5.208H4.518V9.66H10.634z"/>
		<path fill="#FFFFFF" d="M13.4,10.451c-0.39,0-0.855-0.275-0.855-0.87c0-0.527,0.452-0.843,0.844-0.843
			c0.515,0,1.042,0.505,1.042,1.41c0,1.108-1.319,2.177-1.497,2.239l-0.15-0.175c0.188-0.115,1.169-1.046,1.169-1.561
			c0-0.051,0-0.201-0.176-0.201H13.4z"/>
		<path fill="#FFFFFF" d="M15.973,14.077c1.132,0.729,2.214,0.993,3.358,0.993c0.654,0,1.762-0.164,1.762-0.893
			c0-0.53-0.579-0.667-0.982-0.681l-1.95-0.063c-1.597-0.037-2.377-0.968-2.377-1.974c0-0.969,0.718-2,3.057-2
			c1.71,0,2.755,0.654,3.145,0.855l-0.59,1.158c-0.516-0.265-1.46-0.705-2.756-0.705c-0.693,0-1.547,0.152-1.547,0.73
			c0,0.503,0.716,0.63,1.156,0.63l1.7,0.061c1.497,0.039,2.453,0.681,2.453,2.052c0,1.17-0.92,2.139-3.07,2.139
			c-1.762,0-3.057-0.441-3.964-1.133L15.973,14.077z"/>
	</g>
	<g>
		<path fill="#FFFFFF" d="M90.026,9.66v1.308h-2.404v5.208h-1.308v-5.208H83.91V9.66H90.026z"/>
		<path fill="#FFFFFF" d="M93.474,9.66v6.516h-1.31V9.66H93.474z"/>
		<path fill="#FFFFFF" d="M97.885,12.025h-0.023v4.151h-1.311V9.66h1.311l2.288,3.271l2.289-3.271h1.308v6.516h-1.308v-4.151h-0.022
			l-2.267,3.27L97.885,12.025z"/>
		<path fill="#FFFFFF" d="M112.593,9.66v1.308h-4.479v1.183h2.365v1.309h-2.365v1.407h4.631v1.309h-5.939V9.66H112.593z"/>
	</g>
	<g>
		<g>
			<path fill="#C3002F" d="M82.019,10.31c-0.425,0.076-0.856-0.192-0.939-0.647C81,9.212,81.313,8.809,81.735,8.738
				c0.426-0.074,0.854,0.196,0.936,0.647C82.752,9.849,82.433,10.236,82.019,10.31z M81.769,8.92
				c-0.313,0.057-0.541,0.344-0.479,0.705c0.064,0.362,0.379,0.558,0.695,0.502l0.003,0.002c0.302-0.053,0.535-0.346,0.47-0.707
				C82.395,9.058,82.079,8.865,81.769,8.92z M81.825,9.928l-0.168,0.027l-0.133-0.767l0.291-0.051c0.199-0.034,0.325,0,0.359,0.177
				c0.021,0.144-0.051,0.207-0.152,0.233l0.253,0.302l-0.192,0.035L81.85,9.589l-0.082,0.018L81.825,9.928z M81.897,9.448
				c0.072-0.012,0.109-0.035,0.098-0.122c-0.018-0.077-0.098-0.068-0.165-0.059l-0.12,0.018l0.034,0.187L81.897,9.448z"/>
		</g>
		<path fill="#C3002F" d="M79.78,10.226l0.051-0.011l0.627,0.475l-0.039,0.201c-12.73,3.961-31.672,12.864-36.098,17.989
			l-0.039,0.045l-0.059-0.004c-4.773-0.644-11.355,0.5-13.106,1.152l-0.076,0.024l-0.417-0.511l0.045-0.176
			C46.272,22.333,68.155,13.47,79.78,10.226 M56.065,9.19c0.884-0.042,1.481-0.795,1.456-1.448c-0.01-0.313-0.134-0.585-0.355-0.79
			c-0.235-0.208-0.549-0.317-0.896-0.303c-0.696,0.033-1.459,0.664-1.437,1.472c0.005,0.032,0.003,0.068,0.009,0.099
			c0.03,0.264,0.134,0.486,0.322,0.65C55.439,9.125,55.808,9.198,56.065,9.19 M82.07,3.739l-0.024,0.06
			c-0.009,0.062-0.38,1.398-1.615,2.032c-1.104,0.562-1.71,0.014-1.92-0.254c-0.177,0.218-0.605,0.781-1.231,1.747
			c-0.889,1.39-1.409,3.106-1.409,3.125L75.854,10.5l-2.009,0.685l-0.14-0.318c0,0,0.184-0.665,0.338-1.209
			c-0.975,1.396-2.393,2.856-4.09,2.931c-1.043,0.051-1.781-0.415-2.13-1.261c-0.96,2.081-2.283,3.273-3.757,3.342
			c-0.725,0.037-1.231-0.301-1.46-0.915c-1.179,2.113-2.452,2.634-3.342,2.674c-0.442,0.021-0.837-0.097-1.12-0.334
			c-0.198-0.171-0.317-0.414-0.396-0.692c-0.998,1.743-1.945,2.84-3.482,2.911c-0.652,0.04-1.13-0.269-1.372-0.805
			c-0.814,1.284-1.951,2.694-3.668,2.78c-0.315,0.017-0.915-0.021-1.332-0.411c-0.296-0.261-0.443-0.64-0.461-1.12
			c-0.027-0.958,0.477-2.655,0.962-4.272c0.468-1.542,0.909-3.002,0.881-3.768c-0.009-0.271-0.076-0.39-0.125-0.442
			c0,0-0.083-0.05-0.153-0.05c-0.253,0.007-0.646,0.204-1.117,0.536c0,0-1.318,0.993-1.386,1.043
			c-0.41,3.441-1.193,6.625-2.54,10.326l-0.018,0.043l-1.59,0.665l-1.028,0.442l-0.274-0.262l0.028-0.077
			c1.051-2.629,2.786-7.548,2.669-10.941c-0.003-0.247-0.065-0.427-0.16-0.519c-0.064-0.057-0.142-0.082-0.241-0.077
			c-0.217,0.011-0.814,0.351-1.359,0.781c0,0-0.982,0.775-1.062,0.836c0.001,0.11,0.004,0.347,0.004,0.349
			c0.103,4.751-2.502,10.055-3.709,11.723l-0.021,0.03l-1.813,0.753l-1.424,0.6l-0.28-0.256l0.079-0.102
			c1.032-1.457,4.386-6.507,4.4-11.228c-0.004-1.29-0.41-2.352-1.168-3.096c-0.753-0.712-1.82-1.053-3.078-0.988
			c-2.965,0.17-6.145,2.105-6.149,4.702c0,0.632,0.256,1.261,0.714,1.696c0.516,0.49,1.229,0.721,2.062,0.667
			c1.047-0.054,1.537-0.501,1.756-0.88c0.22-0.358,0.252-0.742,0.171-0.927l-0.02-0.043l0.158-0.367c0,0,0.914-0.105,1.837-0.381
			c0.845-0.255,1.796-0.738,1.796-0.738l0.287,0.204l0.065,0.058l-0.018,0.08c0,0-0.015,0.129-0.017,0.131
			c-0.098,1.977-1.965,4.051-5.327,4.247c-1.487,0.07-2.824-0.34-3.663-1.137c-0.678-0.64-1.037-1.542-1.03-2.577
			c0.002-3.643,4.577-5.81,7.672-6.126c3.567-0.368,5.62,0.973,6.393,2.392c0.191-0.177,4.483-4.246,4.675-4.429
			C45.276,7.374,45.28,7.37,45.28,7.37l0.082-0.068c0,0,0.078,0.086,0.27,0.25c0.366,0.313,0.896,0.935,0.957,1.854
			c0.016,0.266,0.042,0.746,0.039,0.876c1.27-1.087,4.868-4.276,4.868-4.276s0.104,0.131,0.271,0.305
			c0.583,0.61,1.058,1.48,0.678,3.221c-0.248,1.09-0.944,2.855-1.668,5.437c-0.493,1.68-0.736,2.901-0.723,3.221
			c-0.011,0.134,0.028,0.229,0.091,0.288c0.045,0.045,0.131,0.061,0.251,0.061c1.023-0.049,2.13-1.955,2.706-3.795l1.109-3.751
			c0,0,1.503-0.595,2.137-1l0.17-0.104l0.426,0.503l-0.13,0.145c-0.085,0.085-0.197,0.301-0.28,0.569
			c-1.314,4.239-1.397,4.514-1.405,4.52c-0.072,0.247-0.111,0.46-0.108,0.64c0.002,0.036,0.002,0.063,0.006,0.089
			c0.021,0.135,0.057,0.241,0.129,0.304l0.2,0.065c0.785-0.034,1.721-1.54,2.626-4.222l1.896-6.369l0.01-0.052l0.056-0.019
			c0,0,0.101-0.041,0.072-0.032c0.495-0.213,1.326-0.617,2.044-1.055l0.159-0.104l0.439,0.507l-0.14,0.133
			c-0.038,0.043-0.124,0.161-0.222,0.511l-2.055,6.952c-0.246,0.866-0.27,1.222-0.27,1.42c-0.004,0.025,0.002,0.048,0.01,0.065
			c0.008,0.134,0.059,0.245,0.123,0.311l0.16,0.05c0.885-0.039,1.723-1.392,2.777-4.53l1.73-5.73c0,0,1.408-0.619,2.137-1.08
			l0.082-0.056l0.084-0.056l0.428,0.509L67.43,3.954c0,0-0.062,0.065-0.057,0.063c-0.043,0.044-0.124,0.177-0.227,0.504
			c0,0-2.076,6.71-2.086,6.714c-0.191,0.604-0.289,1.219-0.273,1.479c0.004,0.229,0.061,0.331,0.102,0.369l0.124,0.035
			c0.597-0.024,1.613-1.046,2.497-3.221c0.922-2.98,2.25-4.467,4.046-4.555c0.429-0.021,0.802,0.106,1.079,0.359
			c0.248,0.227,0.418,0.558,0.459,0.909c0.004,0.043,0.008,0.09,0.008,0.128c0.047,1.464-1.278,2.881-3.374,3.652
			c0,0.022,0.003,0.056,0.005,0.081c0.076,0.587,0.347,0.872,0.824,0.844c1.894-0.091,3.693-3.287,4.385-5.296l0.477-1.33
			l0.07-0.194l1.82-0.749l0.302,0.259c0,0-0.456,1.296-0.733,2.097c0.618-0.86,2.012-2.878,2.012-2.878l0.582,0.099l0.088,0.141
			c-0.068,0.227-0.189,0.853,0.014,1.101c0.072,0.085,0.176,0.113,0.322,0.105c0.805-0.074,1.594-1.259,1.602-1.27l0.169-0.02
			L82.07,3.739z M71.528,6.754c-0.002-0.047-0.011-0.085-0.009-0.131c-0.026-0.151-0.061-0.266-0.118-0.31L71.29,6.271
			c-0.644,0.028-1.485,1.8-1.585,3.217C71.052,8.78,71.548,7.453,71.528,6.754"/>
	</g>
	<circle fill="#FFFFFF" cx="115.317" cy="15.523" r="0.663"/>
</g>
</svg>
