<?xml version="1.0" encoding="utf-8"?>
<!-- Generator: Adobe Illustrator 16.0.0, SVG Export Plug-In . SVG Version: 6.00 Build 0)  -->
<!DOCTYPE svg PUBLIC "-//W3C//DTD SVG 1.0//EN" "http://www.w3.org/TR/2001/REC-SVG-20010904/DTD/svg10.dtd">
<svg version="1.0" id="Layer_1" xmlns="http://www.w3.org/2000/svg" xmlns:xlink="http://www.w3.org/1999/xlink" x="0px" y="0px"
	 width="115.645px" height="73.968px" viewBox="0 0 115.645 73.968" enable-background="new 0 0 115.645 73.968"
	 xml:space="preserve">
<g>
	<path fill="#FFFFFF" d="M112.973,18.176C109.547,1.769,79.264-2.733,48.768,6.15c-3.353,0.976-4.858,1.332-7.998,2.535
		c-0.854,0.338-0.733,0.472,0.145,0.218c32.331-9.664,59.093-4.797,63.406,11.418c4.301,16.168-19.335,36.705-50.88,46.145
		c-0.834,0.249-0.785,0.392,0.075,0.183c2.755-0.568,4.806-1.04,7.636-1.867C91.646,55.902,116.514,35.16,112.973,18.176z"/>
	<path fill="#FFFFFF" d="M41.042,14.393c4.855-1.93,10.001-3.592,15.357-4.909c2.862-0.707,4.932-1.089,7.713-1.542
		c0.862-0.172,0.904-0.023,0.063,0.189c-7.18,1.823-13.973,4.223-20.155,7.035C43.287,14.788,42.308,14.48,41.042,14.393z
		 M20.737,66.527c0.44-0.386,0.843-0.853,1.188-1.326c-5.839-3.173-9.521-7.61-10.649-12.845
		c-2.196-10.133,6.264-21.51,20.613-30.649c-0.25-0.48-0.381-1.018-0.377-1.571c0-0.079,0-0.166,0.009-0.251
		c0.032-0.474,0.145-0.918,0.324-1.324C12.86,28.271,0.6,42.081,2.536,54.134c1.07,6.631,6.462,11.466,14.39,14.471
		C18.374,68.125,19.71,67.452,20.737,66.527z M74.103,66.684c-19.662,4.983-35.716,4.66-46.73,0.882l-7.892,1.915
		c12.392,3.855,29.84,3.765,46.654-0.372c3.395-0.834,4.911-1.128,8.102-2.202C75.111,66.61,74.986,66.467,74.103,66.684z"/>
	<path fill="#FFFFFF" d="M77.068,67.221c-0.549-0.001-1.039-0.437-1.036-1.032c0.009-0.589,0.495-1.028,1.04-1.028
		c0.545,0.004,1.033,0.447,1.031,1.035C78.104,66.802,77.612,67.222,77.068,67.221 M77.072,65.404
		c-0.409-0.002-0.761,0.313-0.766,0.788c0,0.473,0.353,0.793,0.762,0.79v0.003c0.398,0.003,0.762-0.315,0.762-0.789
		C77.837,65.723,77.471,65.404,77.072,65.404 M76.898,66.747h-0.239l0.004-1.11h0.413c0.286,0,0.458,0.087,0.453,0.337
		c0.005,0.207-0.119,0.277-0.267,0.29l0.286,0.485l-0.286-0.002l-0.249-0.465h-0.115V66.747z M77.106,66.093
		c0.111,0,0.171-0.023,0.171-0.148c0-0.112-0.125-0.12-0.209-0.12l-0.17-0.001v0.27H77.106z"/>
	<g id="LITE_3_">
		<path fill="#FFFFFF" d="M95.316,25.772c0.887-1.792,0.501-3.968-0.132-4.861c-0.085-0.11-0.17-0.229-0.266-0.352l-18.788,5.206
			l-3.615,12.66c0,0-0.232,0.674-0.39,1.669c-0.12,0.785-0.265,2.709,0.849,3.812c1.073,1.065,3.079,1.737,4.695,1.811
			c1.166,0.061,2.549-0.031,4.096-0.432c4.396-1.146,8.608-5.058,10.615-7.441c0.026-0.029,0.035-0.059,0.025-0.067
			c-0.016-0.013-0.041,0.003-0.066,0.028c-0.215,0.16-0.572,0.394-0.831,0.527c-0.71,0.394-1.792,0.954-3.132,1.465
			c-3.702,1.403-5.961,0.523-6.546-0.853c-0.327-0.77-0.5-2.208,0.058-3.966c0,0,2.399-0.203,6.297-2.27
			c2.025-1.072,3.225-2.032,4.225-3C93.412,28.743,94.42,27.585,95.316,25.772z M87.117,24.31c2.153-0.48,1.329,2.812,1.329,2.812
			c-1.253,5.261-5.814,5.738-5.814,5.738l2.231-7.875L87.117,24.31z"/>
		<path fill="#FFFFFF" d="M70.496,27.301l1.551-5.689l-10.031,4.79l-0.972,3.581l-4.238,1.131l-0.713,2.749l4.182-1.073
			l-5.304,19.507c0,0,14.394-4.001,15.013-4.171c0.033-0.01,0.062-0.029,0.052-0.04c-0.006-0.017-0.034-0.027-0.071-0.017
			c-0.943,0.233-2.08,0.385-2.973,0.154c-1.113-0.288-1.851-1.101-1.549-2.278c0.195-0.729,4.241-15.727,4.241-15.727l0.923-0.209
			c0,0,4.273-1.059,4.939-4.064L70.496,27.301z"/>
		<path fill="#FFFFFF" d="M50.458,50.062c-0.462,1.71,1.021,2.899,3.427,2.474c0.041-0.004,0.073,0,0.073,0.015
			c0.006,0.014-0.028,0.037-0.053,0.043c-1.512,0.417-13.965,3.873-13.965,3.873l4.667-17.336l0.355-1.244
			c0.466-1.687-0.411-2.962-2.868-2.617c-0.029,0.004-0.071,0.002-0.074-0.013c-0.003-0.014,0.028-0.039,0.057-0.041l13.373-3.735
			C55.451,31.48,50.917,48.358,50.458,50.062z"/>
		<path fill="#FFFFFF" d="M64.158,51.692c-0.215,0.166-0.449,0.346-0.7,0.494c-3.034,1.788-6.952,2.956-6.952,2.956l-25.331,7.003
			c1.161-0.736,2.51-2.701,2.771-3.721l0.518-2.019l5.967-24.303L26.445,36.03c-0.027,0.006-0.063,0.028-0.055,0.042
			c0.002,0.016,0.042,0.02,0.07,0.016c2.41-0.316,3.979,0.777,3.539,2.526l-0.326,1.274l-5.356,21.896l-0.382,1.526
			c-0.283,1.128-1.272,2.765-2.563,3.923c-0.688,0.615-1.444,1.04-2.262,1.276c0.041,0.018,0.085,0.034,0.127,0.05l34.484-8.366
			l10.478-8.456c0.027-0.025,0.045-0.052,0.029-0.063C64.219,51.664,64.189,51.667,64.158,51.692z"/>
	</g>
	<g>
		<path fill="#C3002F" d="M58.31,15.333c-0.133-0.124-0.22-0.284-0.245-0.466c-0.007-0.047-0.007-0.093-0.007-0.143
			c0.015-0.633,0.731-1.117,1.358-1.126c0.311-0.004,0.586,0.092,0.785,0.27c0.182,0.166,0.277,0.387,0.275,0.631
			c-0.016,0.515-0.582,1.1-1.377,1.111C58.873,15.613,58.545,15.542,58.31,15.333 M82.639,11.941
			c-0.019,0.044-0.44,1.133-1.581,1.606c-1.012,0.426-1.528-0.028-1.702-0.246c-0.172,0.169-0.587,0.606-1.19,1.361
			c-0.864,1.078-1.415,2.438-1.421,2.45c-0.012,0.026-0.039,0.046-0.068,0.055l-1.689,0.462c-0.051,0.011-0.098-0.012-0.123-0.051
			l-0.064-0.155c-0.01-0.019-0.01-0.041-0.004-0.058l0.358-0.929c-0.883,1.013-2.247,2.199-3.803,2.226
			c-0.931,0.01-1.576-0.351-1.847-1.021c-0.973,1.613-2.217,2.516-3.52,2.535c-0.648,0.009-1.104-0.263-1.28-0.753
			c-1.149,1.646-2.313,2.024-3.106,2.037c-0.403,0.007-0.748-0.097-0.985-0.301c-0.163-0.134-0.273-0.316-0.337-0.526
			c-0.971,1.344-1.872,2.181-3.246,2.198c-0.581,0.01-1.006-0.228-1.195-0.661c-0.786,0.999-1.876,2.086-3.41,2.109
			c-0.278,0.004-0.812-0.038-1.169-0.357c-0.244-0.22-0.356-0.521-0.348-0.905c0.016-0.771,0.556-2.101,1.077-3.387
			c0.489-1.212,0.958-2.357,0.972-2.968c0.005-0.222-0.048-0.315-0.097-0.357c-0.036-0.027-0.074-0.043-0.131-0.043
			c-0.288,0.002-0.569,0.137-1.021,0.4c0,0-1.23,0.755-1.296,0.793c-0.534,2.734-1.394,5.25-2.789,8.149
			c-0.009,0.027-0.032,0.045-0.064,0.051c-0.377,0.115-0.864,0.288-1.376,0.465L45.29,26.42c-0.038,0.015-0.083,0.003-0.108-0.019
			l-0.176-0.097c-0.027-0.028-0.033-0.067-0.014-0.097c1.067-2.067,2.884-5.948,2.957-8.657c0.01-0.196-0.034-0.345-0.125-0.419
			c-0.049-0.045-0.12-0.067-0.21-0.067c-0.195,0.002-0.732,0.252-1.256,0.584l-0.989,0.636c-0.005,0.134-0.005,0.277-0.005,0.277
			c-0.161,3.793-2.756,7.938-3.919,9.245c-0.013,0.018-0.025,0.026-0.051,0.036c-0.364,0.091-1.001,0.315-1.612,0.529l-1.252,0.409
			c-0.036,0.011-0.067,0.004-0.095-0.021l-0.148-0.074c-0.038-0.032-0.045-0.083-0.008-0.117c0.998-1.128,4.271-5.108,4.514-8.861
			c0.067-1.031-0.239-1.889-0.878-2.486c-0.64-0.591-1.576-0.893-2.705-0.864c-2.664,0.053-5.6,1.512-5.737,3.591
			c-0.032,0.501,0.175,0.993,0.563,1.356c0.43,0.398,1.055,0.606,1.805,0.586c0.938-0.016,1.4-0.367,1.616-0.656
			c0.208-0.28,0.258-0.582,0.193-0.732c-0.009-0.021-0.005-0.047,0.004-0.071l0.112-0.199c0.019-0.035,0.057-0.054,0.1-0.053
			c0.635,0.037,2.904-0.59,3.143-0.753c0.033-0.021,0.078-0.024,0.113-0.005l0.227,0.124c0.041,0.02,0.055,0.07,0.041,0.108
			c0,0-0.019,0.048-0.031,0.109c-0.185,1.563-1.96,3.176-4.974,3.24c-1.33,0.028-2.506-0.335-3.213-0.994
			c-0.579-0.532-0.853-1.249-0.802-2.069c0.192-2.9,4.393-4.517,7.169-4.692c2.647-0.167,4.118,0.558,4.882,1.199
			c0.347,0.286,0.576,0.586,0.729,0.862c0.911-0.685,3.001-2.272,4.404-3.406c0.018-0.017,0.047-0.024,0.077-0.022
			c0.025,0.001,0.051,0.013,0.07,0.031c0,0.004,0.066,0.082,0.188,0.168c0.31,0.211,0.597,0.486,0.7,1.225
			c0.029,0.206,0.044,0.448,0.035,0.735c0,0.056-0.006,0.132-0.013,0.207c1.199-0.846,3.384-2.377,4.477-3.232
			c0.027-0.014,0.051-0.021,0.078-0.021c0.03,0.006,0.052,0.017,0.071,0.04c0,0,0.073,0.08,0.169,0.154
			c0.38,0.259,0.613,0.787,0.588,1.305c-0.027,0.568-0.275,1.342-0.544,2.15c-0.114,0.354-0.381,0.995-0.69,1.742
			c-0.617,1.509-1.477,3.576-1.496,4.238c0,0.111,0.025,0.189,0.075,0.233c0.044,0.041,0.114,0.06,0.223,0.06
			c0.914-0.019,2.003-1.5,2.604-2.951l1.171-2.92c0.011-0.026,0.035-0.048,0.066-0.057c0,0,0.044-0.014,0.038-0.011l0.025-0.01
			c0.358-0.11,1.209-0.349,1.8-0.655l0.078-0.041c0.04-0.022,0.098-0.013,0.124,0.021l0.366,0.184
			c0.008,0.014,0.014,0.026,0.018,0.044c0.002,0.025-0.006,0.056-0.032,0.077l-0.062,0.05c-0.08,0.072-0.242,0.299-0.336,0.51
			c-1.343,3.225-1.474,3.54-1.498,3.583c0.009-0.005,0.015-0.013,0.017-0.02c-0.079,0.19-0.125,0.363-0.129,0.508
			c-0.001,0.142,0.032,0.254,0.098,0.312c0.038,0.035,0.1,0.057,0.169,0.057c0.705-0.01,1.62-1.184,2.571-3.301l2.014-5.019
			c0.005-0.025,0.027-0.042,0.053-0.053l0.07-0.025c0.457-0.155,1.174-0.409,1.829-0.743l0.08-0.038
			c0.04-0.022,0.093-0.013,0.124,0.022l0.363,0.183c0.033,0.034,0.026,0.089-0.01,0.121l-0.062,0.051
			c-0.045,0.036-0.18,0.194-0.285,0.455l-2.186,5.478c-0.269,0.694-0.31,0.969-0.312,1.129c0,0.132,0.035,0.24,0.102,0.299
			c0.039,0.035,0.08,0.051,0.133,0.05c0.805-0.011,1.612-1.067,2.717-3.539l1.82-4.478c0.01-0.025,0.03-0.044,0.056-0.058
			l0.062-0.02c0.359-0.13,1.219-0.412,1.811-0.723l0.078-0.041c0.041-0.021,0.1-0.012,0.127,0.022l0.36,0.182
			c0.013,0.012,0.021,0.026,0.023,0.044c0.005,0.024-0.007,0.054-0.027,0.072l-0.063,0.051c-0.035,0.033-0.172,0.182-0.281,0.458
			c-2.045,4.907-2.196,5.275-2.211,5.313c0.004-0.008,0.008-0.013,0.01-0.017c-0.203,0.475-0.32,0.949-0.328,1.156
			c-0.002,0.189,0.039,0.27,0.078,0.304c0.017,0.012,0.047,0.035,0.104,0.033c0.54-0.007,1.493-0.788,2.397-2.502
			c0.982-2.349,2.24-3.501,3.846-3.526c0.39-0.007,0.716,0.103,0.949,0.313c0.193,0.178,0.32,0.419,0.352,0.671
			c0.01,0.058,0.011,0.114,0.011,0.17c-0.027,1.157-1.28,2.265-3.194,2.825c0,0.051,0.006,0.103,0.007,0.149
			c0.058,0.408,0.288,0.612,0.684,0.607c1.7-0.023,3.475-2.537,4.192-4.111l0.496-1.049c0.01-0.025,0.029-0.061,0.059-0.094
			l0.004-0.016c0.014-0.028,0.034-0.049,0.06-0.058l1.553-0.519c0.04-0.013,0.078-0.007,0.104,0.015l0.163,0.142
			c0.013,0.013,0.027,0.032,0.027,0.051c0.002,0.015,0,0.029-0.008,0.047c0,0-0.441,0.963-0.732,1.606
			c0.588-0.683,1.902-2.206,1.902-2.206c0.026-0.027,0.066-0.041,0.105-0.034l0.446,0.081c0.033,0.002,0.056,0.021,0.067,0.046
			c0.018,0.021,0.018,0.049,0.01,0.07c-0.073,0.176-0.213,0.667-0.044,0.874c0.06,0.064,0.149,0.092,0.28,0.088
			c0.729-0.034,1.455-0.92,1.464-0.929c0.017-0.021,0.042-0.034,0.074-0.04c0.025,0,0.057,0.01,0.079,0.027l0.361,0.186
			C82.639,11.872,82.648,11.905,82.639,11.941 M73.037,13.911c-0.007-0.096-0.038-0.164-0.08-0.202
			c-0.028-0.025-0.063-0.038-0.102-0.038c-0.569,0.012-1.429,1.411-1.583,2.535c1.257-0.522,1.761-1.579,1.774-2.146
			C73.047,14.004,73.047,13.957,73.037,13.911 M80.975,17.344l-0.666-0.333c-0.021-0.02-0.054-0.025-0.09-0.02
			c-10.55,2.271-30.625,8.794-44.953,14.062c-0.032,0.014-0.056,0.032-0.063,0.061c-0.006,0.027,0,0.059,0.019,0.081l0.567,0.285
			c0.025,0.031,0.07,0.044,0.108,0.031c1.61-0.458,7.39-1.147,11.592-0.477c0.032,0.005,0.063-0.007,0.084-0.027
			C51.839,26.984,69.35,20.318,80.93,17.5c0.041-0.008,0.066-0.032,0.08-0.067C81.018,17.396,81.006,17.363,80.975,17.344
			 M82.693,17.742c-0.553,0-1.035-0.438-1.035-1.033c0.01-0.587,0.495-1.027,1.042-1.027c0.546,0.004,1.032,0.444,1.028,1.034
			C83.729,17.323,83.239,17.742,82.693,17.742 M82.7,15.924c-0.413-0.003-0.765,0.313-0.765,0.787s0.35,0.794,0.758,0.788v0.006
			c0.402,0,0.764-0.316,0.764-0.79C83.46,16.241,83.096,15.924,82.7,15.924 M82.524,17.266l-0.239-0.003l0.002-1.107l0.416,0.001
			c0.284,0,0.453,0.087,0.453,0.336c0,0.205-0.121,0.277-0.269,0.29l0.288,0.486h-0.288l-0.251-0.467l-0.112-0.005V17.266z
			 M82.732,16.614c0.105,0,0.174-0.024,0.174-0.147c0-0.111-0.124-0.122-0.213-0.122h-0.169v0.27H82.732z"/>
	</g>
</g>
</svg>
