<?xml version="1.0" encoding="utf-8"?>
<!-- Generator: Adobe Illustrator 16.0.0, SVG Export Plug-In . SVG Version: 6.00 Build 0)  -->
<!DOCTYPE svg PUBLIC "-//W3C//DTD SVG 1.0//EN" "http://www.w3.org/TR/2001/REC-SVG-20010904/DTD/svg10.dtd">
<svg version="1.0" id="Layer_1" xmlns="http://www.w3.org/2000/svg" xmlns:xlink="http://www.w3.org/1999/xlink" x="0px" y="0px"
	 width="269.95px" height="21.29px" viewBox="0 9.975 269.95 21.29" enable-background="new 0 9.975 269.95 21.29"
	 xml:space="preserve">
<g>
	<path fill="#DC351B" d="M259.858,21.126c0,4.512-3.656,8.169-8.166,8.169H18.261c-4.512,0-8.169-3.657-8.169-8.169l0,0
		c0-4.51,3.657-8.168,8.169-8.168h233.431C256.202,12.958,259.858,16.616,259.858,21.126L259.858,21.126z"/>
	<g>
		<path fill="#FFFFFF" d="M68.173,20.751c0,5.402-4.331,9.775-9.675,9.775c-5.337,0-9.666-4.375-9.666-9.775
			c0-5.397,4.329-9.774,9.666-9.774C63.842,10.977,68.173,15.354,68.173,20.751"/>
		<path fill="#DC351B" d="M58.498,31.476c-5.853,0-10.616-4.811-10.616-10.725c0-5.912,4.764-10.725,10.616-10.725
			c5.858,0,10.624,4.813,10.624,10.725C69.122,26.666,64.356,31.476,58.498,31.476 M58.498,11.922c-4.806,0-8.718,3.962-8.718,8.829
			s3.912,8.829,8.718,8.829c4.813,0,8.725-3.962,8.725-8.829C67.223,15.885,63.311,11.922,58.498,11.922"/>
		<path fill="#29261C" d="M55.472,14.751c-0.819,0-1.254,0.401-1.482,0.981c-0.168,0.401-1.22,2.932-1.22,2.932
			c-0.653,0.186-1.131,0.783-1.131,1.495v3.619h1.185c0,0-0.024,0.938-0.024,1.246c0,0.55,0.455,1.004,0.992,1.004
			c0.551,0,1-0.454,1-1.004v-1.246h7.371v1.246c0,0.55,0.442,1.004,0.994,1.004c0.55,0,0.986-0.454,0.986-1.004
			c0-0.308-0.006-1.246-0.006-1.246h1.184v-3.619c0-0.712-0.478-1.31-1.136-1.495c0,0-1.049-2.531-1.214-2.932
			c-0.245-0.58-0.676-0.981-1.484-0.981 M52.798,20.668c0-0.551,0.455-1.005,0.992-1.005c0.551,0,1,0.454,1,1.005
			c0,0.556-0.45,1.013-1,1.013C53.253,21.681,52.798,21.224,52.798,20.668 M62.161,20.668c0-0.551,0.442-1.005,0.994-1.005
			c0.55,0,0.986,0.454,0.986,1.005c0,0.556-0.437,1.013-0.986,1.013C62.604,21.681,62.161,21.224,62.161,20.668 M61.437,15.798
			c0.336,0,0.516,0.139,0.671,0.513c0.154,0.382,0.944,2.275,0.944,2.275h-9.154c0,0,0.796-1.893,0.953-2.275
			c0.151-0.375,0.335-0.513,0.667-0.513H61.437z"/>
		<polyline fill="#DC351B" points="62.801,29.295 50.823,13.656 52.361,12.442 64.345,28.097 		"/>
	</g>
	<g>
		<path fill="#FFFFFF" d="M41.553,20.746c0,5.401-4.332,9.778-9.674,9.778c-5.337,0-9.667-4.377-9.667-9.778
			c0-5.396,4.331-9.775,9.667-9.775C37.221,10.971,41.553,15.35,41.553,20.746"/>
		<g>
			<path fill="#DC351B" d="M31.888,31.483c-5.874,0-10.651-4.778-10.651-10.649c0-5.872,4.778-10.649,10.651-10.649
				c5.87,0,10.649,4.778,10.649,10.649S37.758,31.483,31.888,31.483 M31.888,11.886c-4.935,0-8.947,4.014-8.947,8.948
				c0,4.933,4.013,8.947,8.947,8.947c4.932,0,8.943-4.015,8.943-8.947C40.831,15.9,36.82,11.886,31.888,11.886"/>
			<path fill="#1F140F" d="M38.488,17.573v1.348h1.346v1.029h-1.346v1.347h-1.031V19.95h-1.349v-1.029h1.349v-1.348H38.488z
				 M31.324,25.528c-0.375-0.078-0.69-0.221-0.953-0.438c-0.259-0.213-0.458-0.503-0.599-0.864
				c-0.141-0.359-0.208-0.819-0.208-1.375c0-0.548,0.124-1.011,0.372-1.389c0.248-0.377,0.622-0.602,1.117-0.669v-0.025
				c-0.259-0.059-0.479-0.149-0.651-0.271c-0.171-0.121-0.307-0.267-0.409-0.431c-0.102-0.163-0.17-0.34-0.21-0.529
				c-0.038-0.188-0.054-0.379-0.054-0.575c0-0.352,0.051-0.676,0.156-0.97c0.104-0.295,0.271-0.546,0.506-0.76
				c0.232-0.208,0.531-0.372,0.896-0.491c0.365-0.117,0.804-0.176,1.319-0.176c0.522,0,0.963,0.059,1.324,0.176
				c0.363,0.119,0.659,0.283,0.892,0.491c0.232,0.213,0.4,0.464,0.505,0.76c0.104,0.294,0.157,0.619,0.157,0.97
				c0,0.196-0.019,0.386-0.058,0.575c-0.039,0.189-0.106,0.366-0.207,0.529c-0.102,0.164-0.236,0.31-0.404,0.431
				c-0.167,0.122-0.387,0.212-0.655,0.271v0.025c0.269,0.052,0.496,0.138,0.686,0.266c0.189,0.124,0.343,0.279,0.462,0.459
				c0.118,0.181,0.204,0.387,0.259,0.61c0.054,0.229,0.082,0.47,0.082,0.722c0,0.555-0.07,1.015-0.208,1.373
				c-0.14,0.362-0.336,0.652-0.594,0.865c-0.257,0.217-0.573,0.36-0.953,0.438c-0.379,0.076-0.808,0.113-1.287,0.113
				C32.126,25.64,31.7,25.603,31.324,25.528 M32.051,19.646c0.035,0.142,0.08,0.255,0.132,0.333
				c0.056,0.083,0.121,0.134,0.189,0.164c0.074,0.031,0.149,0.045,0.235,0.045c0.168,0,0.31-0.072,0.431-0.214
				c0.116-0.144,0.173-0.436,0.173-0.873c0-0.217-0.014-0.396-0.048-0.536c-0.034-0.139-0.078-0.247-0.131-0.328
				c-0.058-0.081-0.12-0.137-0.192-0.164c-0.071-0.029-0.149-0.045-0.233-0.045c-0.085,0-0.161,0.016-0.235,0.045
				c-0.069,0.027-0.134,0.083-0.189,0.164c-0.052,0.081-0.097,0.188-0.132,0.328c-0.034,0.14-0.05,0.319-0.05,0.536
				C32.001,19.322,32.017,19.502,32.051,19.646 M32.094,23.948c0.125,0.178,0.292,0.266,0.513,0.266c0.218,0,0.39-0.088,0.511-0.266
				c0.122-0.176,0.183-0.529,0.183-1.059c0-0.522-0.062-0.871-0.183-1.05c-0.121-0.175-0.292-0.264-0.511-0.264
				c-0.221,0-0.388,0.089-0.513,0.264c-0.122,0.179-0.181,0.527-0.181,1.05C31.913,23.419,31.972,23.772,32.094,23.948
				 M26.08,19.418h-1.691v-1.464c0.361,0,0.673-0.025,0.933-0.07c0.261-0.046,0.483-0.123,0.668-0.227
				c0.186-0.105,0.338-0.248,0.455-0.43c0.118-0.181,0.215-0.402,0.292-0.661h1.691v8.937H26.08V19.418z"/>
		</g>
	</g>
	<g>
		<path fill="#FFFFFF" d="M96.538,20.611c0,5.404-4.494,9.777-10.038,9.777c-5.538,0-10.03-4.375-10.03-9.777
			c0-5.396,4.492-9.774,10.03-9.774C92.044,10.837,96.538,15.215,96.538,20.611"/>
		<g>
			<g>
				<path fill="#1F140F" d="M92.159,16.698l-0.463-0.447c-0.055-0.355-0.108-0.566-0.108-0.566L91.01,15.57l-0.008,0.007
					l-0.453-0.437c-0.211-0.203-0.505-0.252-0.712-0.131l-0.719-0.7l-0.302,0.313l0.723,0.696c-0.113,0.212-0.057,0.504,0.154,0.708
					l0.477,0.46l0.054,0.242l0.439,0.3l0.233,0.349c0,0-0.116,0.972-0.233,1.643c-0.115,0.673-0.811,1.296-0.811,1.296
					s-0.762-0.739-1.388-1.32c-0.625-0.58-0.95-0.995-1.876-1.529c-0.925-0.53-0.185-1.294,0.138-1.525
					c0.326-0.232,0.649-0.118,0.882-0.165c0.231-0.046,0.162-0.114,0.162-0.114v-0.371v-0.233l-0.023-0.323l0.163-0.138l0.278-0.14
					c0,0,0-0.16-0.093-0.321c-0.091-0.165-0.373-0.515-0.373-0.515s0.077-0.42-0.155-1.226c-0.229-0.806-1.421-1.077-2.226-1.152
					c-0.807-0.079-1.499,0.921-1.499,0.921s-0.232,0.421-0.461,0.421c-0.231,0-0.423,0-0.958,0.385
					c-0.539,0.386-0.617,1.537-0.387,2.651c0.231,1.111,1.308,1.996,1.308,1.996l-0.693,0.844c0,0-0.269,0.386-1.037,1.307
					c-0.768,0.921-1.268,2.074-1.268,2.074s0.154,0.268,1.458,1.037c1.306,0.768,2.715,1.294,2.715,1.294s0.129,1.009-0.141,1.47
					c-0.271,0.461-0.538,0.807-0.615,1.844c-0.078,1.037,0.651,1.845,0.885,2.076c0.228,0.229,0.036,0.612,0.036,0.612l0.307,0.046
					c0,0,0.416,0,1.181,0.072c0.763,0.066,3.472-0.835,3.472-0.835l-0.054-0.522l0.659-0.295c0,0,1.606-0.875,1.885-1.384
					c0.276-0.512,1.004-1.981,0.367-3.055c-0.611-1.032-2.447-2.212-2.447-2.212s-0.017,0.109,0.167,0.133
					c0.185,0.021,0.625,0.066,0.625,0.066s0.14-0.254,0.696-2.407c0.238-0.93,0.28-1.818,0.25-2.53l0.386-0.396L92.159,16.698
					 M83.97,14.944c0.186,0.047,0.601,0.417,0.601,0.417s0.094,0.394,0.046,0.647c-0.046,0.257-0.3,0.395-0.3,0.395l-0.229,0.047
					c0,0-0.092-0.255-0.164-0.532c-0.069-0.28-0.229-0.696-0.255-0.95C83.648,14.714,83.785,14.898,83.97,14.944 M84.526,22.771
					l-0.025,0.117c0,0-0.668-0.744-1.062-0.88c-0.396-0.142-0.905-0.37-0.905-0.37s-0.114-0.047,0.277-0.371
					c0.395-0.325,0.998-1.064,0.998-1.064l0.278-0.14c0,0,0.623,1.042,0.602,1.529C84.665,22.077,84.526,22.771,84.526,22.771"/>
				<path fill="#DC351B" d="M86.406,31.265c-6.016,0-10.909-4.775-10.909-10.646c0-5.868,4.893-10.644,10.909-10.644
					c6.217,0,10.909,4.577,10.909,10.644C97.315,26.487,92.419,31.265,86.406,31.265 M86.406,11.553
					c-5.146,0-9.331,4.068-9.331,9.066c0,4.999,4.185,9.067,9.331,9.067c5.143,0,9.332-4.068,9.332-9.067
					C95.738,15.45,91.726,11.553,86.406,11.553"/>
				<polygon fill="#DC351B" points="91.018,29.372 78.156,14.225 79.727,12.958 92.585,28.104 				"/>
			</g>
		</g>
	</g>
	<g>
		<path fill="#FFFFFF" d="M104.427,25.024l-1.77-5.778h1.012l0.92,3.336l0.344,1.241c0.014-0.062,0.113-0.459,0.299-1.192
			l0.92-3.385h1.006l0.865,3.353l0.289,1.104l0.332-1.116l0.99-3.341h0.953l-1.807,5.778h-1.02l-0.918-3.461l-0.225-0.984
			l-1.17,4.445H104.427z"/>
		<path fill="#FFFFFF" d="M112.476,25.024l-1.77-5.778h1.012l0.92,3.336l0.344,1.241c0.014-0.062,0.113-0.459,0.299-1.192
			l0.92-3.385h1.006l0.865,3.353l0.289,1.104l0.332-1.116l0.99-3.341h0.953l-1.807,5.778h-1.02l-0.918-3.461l-0.225-0.984
			l-1.17,4.445H112.476z"/>
		<path fill="#FFFFFF" d="M120.524,25.024l-1.77-5.778h1.012l0.92,3.336l0.344,1.241c0.014-0.062,0.113-0.459,0.299-1.192
			l0.92-3.385h1.006l0.865,3.353l0.289,1.104l0.332-1.116l0.99-3.341h0.953l-1.807,5.778h-1.02l-0.918-3.461l-0.225-0.984
			l-1.17,4.445H120.524z"/>
		<path fill="#FFFFFF" d="M127.167,25.024v-1.115h1.117v1.115H127.167z"/>
		<path fill="#FFFFFF" d="M129.985,25.024v-7.978h0.98v2.863c0.457-0.53,1.033-0.795,1.73-0.795c0.428,0,0.801,0.084,1.115,0.253
			c0.316,0.168,0.541,0.402,0.678,0.699c0.137,0.297,0.205,0.729,0.205,1.295v3.662h-0.98v-3.662c0-0.49-0.105-0.846-0.318-1.069
			s-0.512-0.334-0.9-0.334c-0.291,0-0.564,0.075-0.818,0.226c-0.256,0.151-0.439,0.355-0.547,0.612
			c-0.109,0.258-0.164,0.613-0.164,1.067v3.162h-0.981V25.024z"/>
		<path fill="#FFFFFF" d="M139.956,24.312c-0.36,0.31-0.711,0.526-1.047,0.653s-0.695,0.19-1.08,0.19
			c-0.635,0-1.123-0.155-1.465-0.465c-0.34-0.312-0.512-0.707-0.512-1.189c0-0.283,0.064-0.542,0.193-0.775
			c0.129-0.232,0.299-0.422,0.506-0.562c0.209-0.143,0.445-0.249,0.705-0.321c0.193-0.051,0.481-0.1,0.871-0.147
			c0.791-0.094,1.373-0.207,1.746-0.336c0.004-0.134,0.006-0.219,0.006-0.256c0-0.399-0.092-0.68-0.277-0.843
			c-0.25-0.221-0.621-0.332-1.115-0.332c-0.461,0-0.801,0.081-1.02,0.242c-0.221,0.162-0.383,0.447-0.488,0.857l-0.957-0.13
			c0.086-0.41,0.23-0.741,0.43-0.993c0.2-0.252,0.488-0.446,0.865-0.583c0.377-0.136,0.814-0.204,1.311-0.204
			c0.494,0,0.896,0.058,1.203,0.174c0.309,0.116,0.535,0.262,0.68,0.438c0.146,0.176,0.248,0.398,0.308,0.667
			c0.031,0.167,0.05,0.468,0.05,0.903v1.307c0,0.91,0.02,1.486,0.062,1.728c0.041,0.241,0.122,0.474,0.245,0.694h-1.021
			C140.051,24.822,139.985,24.584,139.956,24.312z M139.874,22.125c-0.354,0.146-0.889,0.269-1.6,0.37
			c-0.402,0.058-0.688,0.123-0.854,0.195c-0.168,0.072-0.297,0.18-0.387,0.318c-0.091,0.139-0.138,0.294-0.138,0.465
			c0,0.262,0.101,0.479,0.297,0.653c0.197,0.174,0.488,0.261,0.869,0.261c0.377,0,0.713-0.082,1.006-0.248
			c0.295-0.164,0.511-0.391,0.647-0.678c0.105-0.221,0.156-0.547,0.156-0.979v-0.358H139.874z"/>
		<path fill="#FFFFFF" d="M143.286,25.024h-0.908v-7.978h0.98v2.846c0.412-0.519,0.941-0.778,1.582-0.778
			c0.355,0,0.693,0.072,1.01,0.215c0.318,0.143,0.58,0.345,0.785,0.604c0.203,0.259,0.365,0.572,0.48,0.938
			c0.117,0.367,0.174,0.758,0.174,1.176c0,0.99-0.244,1.756-0.734,2.296s-1.078,0.812-1.764,0.812c-0.682,0-1.217-0.285-1.605-0.854
			V25.024L143.286,25.024z M143.276,22.092c0,0.693,0.094,1.193,0.283,1.502c0.309,0.505,0.725,0.757,1.252,0.757
			c0.428,0,0.797-0.187,1.109-0.559c0.312-0.372,0.469-0.926,0.469-1.663c0-0.755-0.15-1.312-0.449-1.671
			c-0.301-0.359-0.662-0.539-1.086-0.539c-0.428,0-0.799,0.186-1.111,0.558C143.433,20.85,143.276,21.388,143.276,22.092z"/>
		<path fill="#FFFFFF" d="M148.56,25.024v-7.978h0.979v7.978H148.56z"/>
		<path fill="#FFFFFF" d="M155.015,23.164l1.012,0.125c-0.159,0.591-0.455,1.05-0.887,1.376c-0.433,0.327-0.983,0.49-1.654,0.49
			c-0.846,0-1.516-0.26-2.012-0.781s-0.742-1.25-0.742-2.189c0-0.973,0.25-1.728,0.75-2.265c0.502-0.537,1.149-0.806,1.949-0.806
			c0.771,0,1.403,0.263,1.894,0.789c0.489,0.526,0.733,1.267,0.733,2.221c0,0.059,0,0.145-0.004,0.261h-4.312
			c0.037,0.636,0.215,1.121,0.539,1.458c0.322,0.338,0.725,0.506,1.207,0.506c0.359,0,0.666-0.094,0.92-0.283
			C154.663,23.878,154.864,23.577,155.015,23.164z M151.797,21.58h3.228c-0.043-0.486-0.166-0.851-0.368-1.094
			c-0.312-0.377-0.718-0.566-1.216-0.566c-0.448,0-0.828,0.15-1.135,0.452C151.999,20.674,151.831,21.076,151.797,21.58z"/>
		<path fill="#FFFFFF" d="M157.256,25.024v-5.778h0.875v0.811c0.183-0.283,0.425-0.511,0.726-0.683
			c0.302-0.172,0.646-0.259,1.029-0.259c0.428,0,0.778,0.089,1.053,0.267c0.274,0.178,0.468,0.426,0.58,0.745
			c0.457-0.675,1.051-1.012,1.783-1.012c0.573,0,1.016,0.159,1.323,0.477c0.308,0.317,0.461,0.806,0.461,1.466v3.966h-0.973v-3.641
			c0-0.392-0.033-0.674-0.096-0.846c-0.064-0.172-0.18-0.311-0.346-0.417c-0.168-0.105-0.363-0.158-0.588-0.158
			c-0.406,0-0.744,0.135-1.012,0.405c-0.271,0.271-0.402,0.703-0.402,1.298v3.358h-0.98v-3.754c0-0.437-0.08-0.763-0.24-0.979
			c-0.158-0.218-0.42-0.327-0.783-0.327c-0.274,0-0.528,0.073-0.764,0.218c-0.234,0.145-0.404,0.357-0.51,0.637
			c-0.105,0.28-0.158,0.682-0.158,1.208v3h-0.979V25.024z"/>
		<path fill="#FFFFFF" d="M166.174,22.135c0-1.07,0.3-1.863,0.894-2.378c0.498-0.428,1.104-0.643,1.818-0.643
			c0.795,0,1.442,0.261,1.946,0.781s0.758,1.24,0.758,2.158c0,0.744-0.112,1.329-0.336,1.755c-0.223,0.426-0.547,0.758-0.975,0.993
			c-0.426,0.236-0.891,0.354-1.395,0.354c-0.809,0-1.463-0.26-1.963-0.778C166.424,23.858,166.174,23.11,166.174,22.135z
			 M167.183,22.135c0,0.74,0.159,1.294,0.483,1.663c0.322,0.368,0.729,0.553,1.219,0.553c0.486,0,0.892-0.186,1.214-0.556
			c0.321-0.37,0.483-0.935,0.483-1.692c0-0.715-0.162-1.255-0.485-1.625c-0.326-0.368-0.729-0.552-1.212-0.552
			c-0.489,0-0.895,0.183-1.219,0.55C167.342,20.842,167.183,21.396,167.183,22.135z"/>
		<path fill="#FFFFFF" d="M172.347,23.3l0.969-0.152c0.056,0.389,0.205,0.687,0.453,0.894c0.25,0.207,0.597,0.31,1.043,0.31
			c0.448,0,0.783-0.092,1.002-0.274c0.218-0.183,0.326-0.398,0.326-0.646c0-0.221-0.097-0.395-0.289-0.521
			c-0.136-0.087-0.468-0.198-1.002-0.332c-0.718-0.182-1.216-0.338-1.492-0.471s-0.487-0.316-0.633-0.551
			c-0.144-0.233-0.216-0.493-0.216-0.774c0-0.258,0.062-0.496,0.179-0.716c0.117-0.219,0.276-0.402,0.481-0.547
			c0.152-0.112,0.359-0.208,0.623-0.286c0.263-0.078,0.545-0.117,0.847-0.117c0.452,0,0.853,0.065,1.192,0.196
			c0.344,0.13,0.596,0.307,0.76,0.53c0.164,0.223,0.275,0.521,0.338,0.896l-0.959,0.13c-0.043-0.297-0.168-0.53-0.377-0.696
			c-0.209-0.167-0.504-0.25-0.885-0.25c-0.449,0-0.771,0.074-0.963,0.223c-0.193,0.149-0.289,0.323-0.289,0.522
			c0,0.127,0.041,0.241,0.119,0.343c0.08,0.105,0.205,0.192,0.377,0.262c0.098,0.035,0.387,0.119,0.865,0.25
			c0.693,0.185,1.176,0.336,1.449,0.453c0.275,0.118,0.49,0.291,0.645,0.514c0.156,0.226,0.234,0.505,0.234,0.839
			c0,0.325-0.094,0.634-0.285,0.922s-0.465,0.511-0.824,0.669s-0.766,0.236-1.219,0.236c-0.752,0-1.324-0.156-1.717-0.469
			C172.706,24.375,172.456,23.913,172.347,23.3z"/>
		<path fill="#FFFFFF" d="M182.062,25.024v-0.729c-0.367,0.573-0.905,0.859-1.617,0.859c-0.461,0-0.885-0.127-1.271-0.381
			c-0.387-0.254-0.688-0.608-0.897-1.064c-0.213-0.455-0.317-0.979-0.317-1.57c0-0.576,0.096-1.1,0.287-1.57
			c0.192-0.47,0.481-0.83,0.864-1.081c0.386-0.25,0.813-0.375,1.291-0.375c0.349,0,0.658,0.074,0.931,0.221s0.494,0.338,0.664,0.574
			v-2.863h0.975v7.979H182.062L182.062,25.024z M178.963,22.142c0,0.739,0.156,1.293,0.47,1.659c0.312,0.367,0.68,0.55,1.104,0.55
			c0.43,0,0.793-0.175,1.092-0.524c0.299-0.351,0.449-0.886,0.449-1.603c0-0.791-0.152-1.372-0.457-1.742
			c-0.306-0.37-0.681-0.555-1.127-0.555c-0.437,0-0.8,0.178-1.091,0.533C179.11,20.815,178.963,21.375,178.963,22.142z"/>
		<path fill="#FFFFFF" d="M188.465,23.164l1.013,0.125c-0.158,0.591-0.455,1.05-0.888,1.376c-0.432,0.327-0.981,0.49-1.653,0.49
			c-0.847,0-1.517-0.26-2.011-0.781c-0.495-0.521-0.743-1.25-0.743-2.189c0-0.973,0.25-1.728,0.752-2.265
			c0.5-0.537,1.149-0.806,1.946-0.806c0.773,0,1.404,0.263,1.896,0.789c0.49,0.526,0.733,1.267,0.733,2.221
			c0,0.059-0.002,0.145-0.006,0.261h-4.311c0.037,0.636,0.217,1.121,0.539,1.458c0.324,0.338,0.727,0.506,1.209,0.506
			c0.359,0,0.666-0.094,0.92-0.283C188.116,23.878,188.317,23.577,188.465,23.164z M185.249,21.58h3.229
			c-0.045-0.486-0.168-0.851-0.371-1.094c-0.312-0.377-0.717-0.566-1.213-0.566c-0.451,0-0.828,0.15-1.136,0.452
			C185.452,20.674,185.282,21.076,185.249,21.58z"/>
		<path fill="#FFFFFF" d="M194.479,24.312c-0.363,0.31-0.713,0.526-1.049,0.653c-0.334,0.127-0.695,0.19-1.08,0.19
			c-0.635,0-1.123-0.155-1.463-0.465c-0.342-0.312-0.512-0.707-0.512-1.189c0-0.283,0.063-0.542,0.192-0.775
			c0.13-0.232,0.298-0.422,0.507-0.562c0.209-0.143,0.442-0.249,0.704-0.321c0.191-0.051,0.481-0.1,0.871-0.147
			c0.791-0.094,1.373-0.207,1.746-0.336c0.004-0.134,0.006-0.219,0.006-0.256c0-0.399-0.094-0.68-0.276-0.843
			c-0.25-0.221-0.623-0.332-1.117-0.332c-0.459,0-0.801,0.081-1.021,0.242c-0.219,0.161-0.381,0.447-0.485,0.857l-0.959-0.13
			c0.088-0.41,0.229-0.741,0.43-0.993c0.201-0.252,0.488-0.446,0.865-0.583c0.379-0.136,0.813-0.204,1.312-0.204
			c0.494,0,0.896,0.058,1.203,0.174s0.535,0.262,0.681,0.438c0.145,0.176,0.245,0.398,0.305,0.667
			c0.033,0.167,0.049,0.468,0.049,0.903v1.307c0,0.91,0.021,1.486,0.062,1.728s0.125,0.474,0.247,0.694h-1.022
			C194.573,24.822,194.508,24.584,194.479,24.312z M194.397,22.125c-0.355,0.146-0.889,0.269-1.6,0.37
			c-0.402,0.058-0.688,0.123-0.855,0.195c-0.166,0.072-0.295,0.18-0.385,0.318c-0.092,0.141-0.137,0.294-0.137,0.465
			c0,0.262,0.098,0.479,0.297,0.653c0.197,0.174,0.486,0.261,0.867,0.261c0.377,0,0.713-0.082,1.008-0.248
			c0.293-0.164,0.51-0.391,0.646-0.678c0.104-0.221,0.158-0.547,0.158-0.979L194.397,22.125L194.397,22.125z"/>
		<path fill="#FFFFFF" d="M196.883,25.024v-7.978h0.98v7.978H196.883z"/>
		<path fill="#FFFFFF" d="M203.153,22.908l0.963,0.125c-0.104,0.664-0.373,1.184-0.807,1.559s-0.967,0.563-1.598,0.563
			c-0.791,0-1.428-0.258-1.908-0.775s-0.721-1.258-0.721-2.223c0-0.624,0.104-1.17,0.311-1.638c0.207-0.468,0.521-0.819,0.943-1.053
			c0.424-0.234,0.883-0.351,1.381-0.351c0.627,0,1.141,0.159,1.539,0.477c0.399,0.317,0.654,0.768,0.768,1.352l-0.953,0.147
			c-0.09-0.388-0.25-0.68-0.48-0.876c-0.229-0.196-0.51-0.294-0.836-0.294c-0.491,0-0.895,0.177-1.203,0.531
			c-0.307,0.354-0.461,0.913-0.461,1.679c0,0.776,0.148,1.341,0.445,1.692s0.687,0.527,1.164,0.527c0.385,0,0.707-0.117,0.965-0.354
			C202.92,23.761,203.084,23.397,203.153,22.908z"/>
		<path fill="#FFFFFF" d="M204.59,22.135c0-1.07,0.298-1.863,0.894-2.378c0.496-0.428,1.103-0.643,1.815-0.643
			c0.796,0,1.445,0.261,1.949,0.781s0.756,1.24,0.756,2.158c0,0.744-0.11,1.329-0.334,1.755c-0.225,0.426-0.549,0.758-0.975,0.993
			c-0.426,0.236-0.893,0.354-1.396,0.354c-0.809,0-1.463-0.26-1.961-0.778C204.838,23.858,204.59,23.11,204.59,22.135z
			 M205.597,22.135c0,0.74,0.161,1.294,0.483,1.663s0.73,0.553,1.219,0.553c0.486,0,0.892-0.186,1.216-0.556
			c0.321-0.37,0.483-0.935,0.483-1.692c0-0.715-0.164-1.255-0.488-1.625c-0.323-0.369-0.729-0.552-1.211-0.552
			c-0.487,0-0.896,0.183-1.219,0.55C205.758,20.842,205.597,21.396,205.597,22.135z"/>
		<path fill="#FFFFFF" d="M211.153,25.024v-7.978h0.979v2.863c0.457-0.53,1.035-0.795,1.73-0.795c0.43,0,0.801,0.084,1.117,0.253
			c0.314,0.168,0.541,0.402,0.678,0.699c0.135,0.297,0.203,0.729,0.203,1.295v3.662h-0.98v-3.662c0-0.49-0.104-0.846-0.315-1.069
			c-0.213-0.223-0.515-0.334-0.901-0.334c-0.289,0-0.562,0.075-0.818,0.226s-0.438,0.355-0.547,0.612
			c-0.109,0.258-0.164,0.613-0.164,1.067v3.162h-0.98V25.024z"/>
		<path fill="#FFFFFF" d="M216.987,22.135c0-1.07,0.297-1.863,0.893-2.378c0.496-0.428,1.103-0.643,1.816-0.643
			c0.795,0,1.445,0.261,1.949,0.781s0.756,1.24,0.756,2.158c0,0.744-0.111,1.329-0.334,1.755c-0.225,0.426-0.549,0.758-0.975,0.993
			c-0.426,0.236-0.893,0.354-1.396,0.354c-0.809,0-1.463-0.26-1.961-0.778C217.235,23.858,216.987,23.11,216.987,22.135z
			 M217.993,22.135c0,0.74,0.162,1.294,0.484,1.663s0.73,0.553,1.219,0.553c0.486,0,0.891-0.186,1.215-0.556
			c0.322-0.37,0.484-0.935,0.484-1.692c0-0.715-0.164-1.255-0.488-1.625s-0.729-0.552-1.211-0.552c-0.488,0-0.896,0.183-1.219,0.55
			C218.155,20.842,217.993,21.396,217.993,22.135z"/>
		<path fill="#FFFFFF" d="M223.528,25.024v-7.978h0.979v7.978H223.528z"/>
		<path fill="#FFFFFF" d="M226.304,25.024v-1.115h1.114v1.115H226.304z"/>
		<path fill="#FFFFFF" d="M232.894,22.908l0.963,0.125c-0.104,0.664-0.373,1.184-0.808,1.559c-0.434,0.375-0.967,0.563-1.598,0.563
			c-0.791,0-1.428-0.258-1.908-0.775c-0.479-0.518-0.721-1.258-0.721-2.223c0-0.624,0.104-1.17,0.311-1.638
			c0.207-0.468,0.521-0.819,0.943-1.053c0.424-0.234,0.883-0.351,1.381-0.351c0.627,0,1.142,0.159,1.539,0.477
			c0.4,0.317,0.654,0.768,0.769,1.352l-0.953,0.147c-0.09-0.388-0.25-0.68-0.479-0.876c-0.23-0.196-0.511-0.294-0.836-0.294
			c-0.492,0-0.896,0.177-1.203,0.531s-0.461,0.913-0.461,1.679c0,0.776,0.147,1.341,0.444,1.692
			c0.298,0.352,0.687,0.527,1.164,0.527c0.386,0,0.707-0.117,0.966-0.354C232.661,23.761,232.825,23.397,232.894,22.908z"/>
		<path fill="#FFFFFF" d="M234.331,22.135c0-1.07,0.297-1.863,0.894-2.378c0.496-0.428,1.103-0.643,1.815-0.643
			c0.795,0,1.445,0.261,1.949,0.781s0.756,1.24,0.756,2.158c0,0.744-0.111,1.329-0.334,1.755c-0.225,0.426-0.549,0.758-0.975,0.993
			c-0.426,0.236-0.893,0.354-1.396,0.354c-0.809,0-1.463-0.26-1.961-0.778C234.579,23.858,234.331,23.11,234.331,22.135z
			 M235.336,22.135c0,0.74,0.162,1.294,0.484,1.663s0.73,0.553,1.219,0.553c0.486,0,0.892-0.186,1.215-0.556
			c0.322-0.37,0.484-0.935,0.484-1.692c0-0.715-0.164-1.255-0.488-1.625s-0.729-0.552-1.211-0.552c-0.488,0-0.896,0.183-1.219,0.55
			C235.499,20.842,235.336,21.396,235.336,22.135z"/>
		<path fill="#FFFFFF" d="M240.894,25.024v-5.778h0.875v0.811c0.183-0.283,0.424-0.511,0.726-0.683
			c0.301-0.172,0.645-0.259,1.028-0.259c0.429,0,0.778,0.089,1.054,0.267c0.273,0.178,0.467,0.426,0.58,0.745
			c0.456-0.675,1.051-1.012,1.782-1.012c0.574,0,1.017,0.159,1.324,0.477c0.307,0.317,0.461,0.806,0.461,1.466v3.966h-0.974v-3.641
			c0-0.392-0.033-0.674-0.096-0.846c-0.064-0.172-0.18-0.311-0.346-0.417c-0.168-0.105-0.363-0.158-0.588-0.158
			c-0.406,0-0.744,0.135-1.012,0.405c-0.271,0.271-0.402,0.703-0.402,1.298v3.358h-0.98v-3.754c0-0.437-0.08-0.763-0.24-0.979
			c-0.157-0.218-0.42-0.327-0.782-0.327c-0.274,0-0.529,0.073-0.765,0.218c-0.234,0.145-0.403,0.357-0.51,0.637
			c-0.105,0.28-0.158,0.682-0.158,1.208v3h-0.978V25.024z"/>
	</g>
</g>
</svg>
